<?xml version="1.0" encoding="UTF-8" standalone="no"?>
<!DOCTYPE svg PUBLIC "-//W3C//DTD SVG 1.1//EN"
 "http://www.w3.org/Graphics/SVG/1.1/DTD/svg11.dtd">
<!-- Generated by graphviz version 2.43.0 (0)
 -->
<!-- Title: G Pages: 1 -->
<svg width="1210pt" height="833pt"
 viewBox="0.00 0.00 1210.20 832.68" xmlns="http://www.w3.org/2000/svg" xmlns:xlink="http://www.w3.org/1999/xlink">
<g id="graph0" class="graph" transform="scale(1 1) rotate(0) translate(21.6 811.08)">
<title>G</title>
<polygon fill="#111111" stroke="transparent" points="-21.6,21.6 -21.6,-811.08 1188.6,-811.08 1188.6,21.6 -21.6,21.6"/>
<!-- Components/Card/index.jsx -->
<g id="node1" class="node">
<title>Components/Card/index.jsx</title>
<path fill="none" stroke="#c6c5fe" d="M834.83,-116.48C834.83,-116.48 667.17,-116.48 667.17,-116.48 663.33,-116.48 659.5,-112.64 659.5,-108.81 659.5,-108.81 659.5,-101.14 659.5,-101.14 659.5,-97.31 663.33,-93.48 667.17,-93.48 667.17,-93.48 834.83,-93.48 834.83,-93.48 838.67,-93.48 842.5,-97.31 842.5,-101.14 842.5,-101.14 842.5,-108.81 842.5,-108.81 842.5,-112.64 838.67,-116.48 834.83,-116.48"/>
<text text-anchor="middle" x="751" y="-101.28" font-family="Arial" font-size="14.00" fill="#c6c5fe">Components/Card/index.jsx</text>
</g>
<!-- Context/index.jsx -->
<g id="node2" class="node">
<title>Context/index.jsx</title>
<path fill="none" stroke="#cfffac" d="M1098.33,-334.48C1098.33,-334.48 994.67,-334.48 994.67,-334.48 990.83,-334.48 987,-330.64 987,-326.81 987,-326.81 987,-319.14 987,-319.14 987,-315.31 990.83,-311.48 994.67,-311.48 994.67,-311.48 1098.33,-311.48 1098.33,-311.48 1102.17,-311.48 1106,-315.31 1106,-319.14 1106,-319.14 1106,-326.81 1106,-326.81 1106,-330.64 1102.17,-334.48 1098.33,-334.48"/>
<text text-anchor="middle" x="1046.5" y="-319.28" font-family="Arial" font-size="14.00" fill="#cfffac">Context/index.jsx</text>
</g>
<!-- Components/Card/index.jsx&#45;&gt;Context/index.jsx -->
<g id="edge1" class="edge">
<title>Components/Card/index.jsx&#45;&gt;Context/index.jsx</title>
<path fill="none" stroke="#757575" d="M842.57,-112.61C859.11,-116.58 875.66,-122.42 890,-130.98 961.46,-173.63 1013.91,-261.9 1035.13,-302.15"/>
<polygon fill="#757575" stroke="#757575" points="1032.04,-303.79 1039.73,-311.08 1038.26,-300.59 1032.04,-303.79"/>
</g>
<!-- Components/CheckoutSideMenu/index.jsx -->
<g id="node3" class="node">
<title>Components/CheckoutSideMenu/index.jsx</title>
<path fill="none" stroke="#c6c5fe" d="M555.33,-709.48C555.33,-709.48 298.67,-709.48 298.67,-709.48 294.83,-709.48 291,-705.64 291,-701.81 291,-701.81 291,-694.14 291,-694.14 291,-690.31 294.83,-686.48 298.67,-686.48 298.67,-686.48 555.33,-686.48 555.33,-686.48 559.17,-686.48 563,-690.31 563,-694.14 563,-694.14 563,-701.81 563,-701.81 563,-705.64 559.17,-709.48 555.33,-709.48"/>
<text text-anchor="middle" x="427" y="-694.28" font-family="Arial" font-size="14.00" fill="#c6c5fe">Components/CheckoutSideMenu/index.jsx</text>
</g>
<!-- Components/CheckoutSideMenu/index.jsx&#45;&gt;Context/index.jsx -->
<g id="edge4" class="edge">
<title>Components/CheckoutSideMenu/index.jsx&#45;&gt;Context/index.jsx</title>
<path fill="none" stroke="#757575" d="M486.46,-709.5C596.24,-729.75 827.81,-765.36 890,-718.98 934.98,-685.43 906.78,-650.69 926,-597.98 961.39,-500.9 1013.74,-389.04 1035.47,-343.68"/>
<polygon fill="#757575" stroke="#757575" points="1038.68,-345.09 1039.86,-334.56 1032.37,-342.06 1038.68,-345.09"/>
</g>
<!-- Components/CheckoutSideMenu/styles.css -->
<g id="node4" class="node">
<title>Components/CheckoutSideMenu/styles.css</title>
<path fill="none" stroke="#cfffac" d="M882.33,-709.48C882.33,-709.48 619.67,-709.48 619.67,-709.48 615.83,-709.48 612,-705.64 612,-701.81 612,-701.81 612,-694.14 612,-694.14 612,-690.31 615.83,-686.48 619.67,-686.48 619.67,-686.48 882.33,-686.48 882.33,-686.48 886.17,-686.48 890,-690.31 890,-694.14 890,-694.14 890,-701.81 890,-701.81 890,-705.64 886.17,-709.48 882.33,-709.48"/>
<text text-anchor="middle" x="751" y="-694.28" font-family="Arial" font-size="14.00" fill="#cfffac">Components/CheckoutSideMenu/styles.css</text>
</g>
<!-- Components/CheckoutSideMenu/index.jsx&#45;&gt;Components/CheckoutSideMenu/styles.css -->
<g id="edge2" class="edge">
<title>Components/CheckoutSideMenu/index.jsx&#45;&gt;Components/CheckoutSideMenu/styles.css</title>
<path fill="none" stroke="#757575" d="M563.16,-697.98C575.85,-697.98 588.77,-697.98 601.58,-697.98"/>
<polygon fill="#757575" stroke="#757575" points="601.83,-701.48 611.83,-697.98 601.83,-694.48 601.83,-701.48"/>
</g>
<!-- Components/OrderCard/index.jsx -->
<g id="node5" class="node">
<title>Components/OrderCard/index.jsx</title>
<path fill="none" stroke="#cfffac" d="M852.33,-511.48C852.33,-511.48 649.67,-511.48 649.67,-511.48 645.83,-511.48 642,-507.64 642,-503.81 642,-503.81 642,-496.14 642,-496.14 642,-492.31 645.83,-488.48 649.67,-488.48 649.67,-488.48 852.33,-488.48 852.33,-488.48 856.17,-488.48 860,-492.31 860,-496.14 860,-496.14 860,-503.81 860,-503.81 860,-507.64 856.17,-511.48 852.33,-511.48"/>
<text text-anchor="middle" x="751" y="-496.28" font-family="Arial" font-size="14.00" fill="#cfffac">Components/OrderCard/index.jsx</text>
</g>
<!-- Components/CheckoutSideMenu/index.jsx&#45;&gt;Components/OrderCard/index.jsx -->
<g id="edge3" class="edge">
<title>Components/CheckoutSideMenu/index.jsx&#45;&gt;Components/OrderCard/index.jsx</title>
<path fill="none" stroke="#757575" d="M446.7,-686.47C500.95,-653.12 658.52,-556.23 722.51,-516.88"/>
<polygon fill="#757575" stroke="#757575" points="724.56,-519.73 731.24,-511.51 720.89,-513.76 724.56,-519.73"/>
</g>
<!-- utils/index.js -->
<g id="node6" class="node">
<title>utils/index.js</title>
<path fill="none" stroke="#cfffac" d="M788.33,-789.48C788.33,-789.48 713.67,-789.48 713.67,-789.48 709.83,-789.48 706,-785.64 706,-781.81 706,-781.81 706,-774.14 706,-774.14 706,-770.31 709.83,-766.48 713.67,-766.48 713.67,-766.48 788.33,-766.48 788.33,-766.48 792.17,-766.48 796,-770.31 796,-774.14 796,-774.14 796,-781.81 796,-781.81 796,-785.64 792.17,-789.48 788.33,-789.48"/>
<text text-anchor="middle" x="751" y="-774.28" font-family="Arial" font-size="14.00" fill="#cfffac">utils/index.js</text>
</g>
<!-- Components/CheckoutSideMenu/index.jsx&#45;&gt;utils/index.js -->
<g id="edge5" class="edge">
<title>Components/CheckoutSideMenu/index.jsx&#45;&gt;utils/index.js</title>
<path fill="none" stroke="#757575" d="M463.34,-709.48C500.18,-721.21 559.72,-739.41 612,-751.98 639.52,-758.59 670.46,-764.55 696.06,-769.09"/>
<polygon fill="#757575" stroke="#757575" points="695.49,-772.55 705.95,-770.82 696.7,-765.65 695.49,-772.55"/>
</g>
<!-- Components/Layout/index.jsx -->
<g id="node7" class="node">
<title>Components/Layout/index.jsx</title>
<path fill="none" stroke="#cfffac" d="M840.33,-393.48C840.33,-393.48 661.67,-393.48 661.67,-393.48 657.83,-393.48 654,-389.64 654,-385.81 654,-385.81 654,-378.14 654,-378.14 654,-374.31 657.83,-370.48 661.67,-370.48 661.67,-370.48 840.33,-370.48 840.33,-370.48 844.17,-370.48 848,-374.31 848,-378.14 848,-378.14 848,-385.81 848,-385.81 848,-389.64 844.17,-393.48 840.33,-393.48"/>
<text text-anchor="middle" x="751" y="-378.28" font-family="Arial" font-size="14.00" fill="#cfffac">Components/Layout/index.jsx</text>
</g>
<!-- Components/Navbar/index.jsx -->
<g id="node8" class="node">
<title>Components/Navbar/index.jsx</title>
<path fill="none" stroke="#c6c5fe" d="M517.83,-234.48C517.83,-234.48 336.17,-234.48 336.17,-234.48 332.33,-234.48 328.5,-230.64 328.5,-226.81 328.5,-226.81 328.5,-219.14 328.5,-219.14 328.5,-215.31 332.33,-211.48 336.17,-211.48 336.17,-211.48 517.83,-211.48 517.83,-211.48 521.67,-211.48 525.5,-215.31 525.5,-219.14 525.5,-219.14 525.5,-226.81 525.5,-226.81 525.5,-230.64 521.67,-234.48 517.83,-234.48"/>
<text text-anchor="middle" x="427" y="-219.28" font-family="Arial" font-size="14.00" fill="#c6c5fe">Components/Navbar/index.jsx</text>
</g>
<!-- Components/Navbar/index.jsx&#45;&gt;Context/index.jsx -->
<g id="edge7" class="edge">
<title>Components/Navbar/index.jsx&#45;&gt;Context/index.jsx</title>
<path fill="none" stroke="#757575" d="M468.34,-211.47C550.39,-190.14 741.53,-151.02 890,-201.98 948.89,-222.19 1002.66,-274.83 1028.81,-303.57"/>
<polygon fill="#757575" stroke="#757575" points="1026.45,-306.19 1035.72,-311.33 1031.68,-301.53 1026.45,-306.19"/>
</g>
<!-- Components/ShoppingCart/index.jsx -->
<g id="node9" class="node">
<title>Components/ShoppingCart/index.jsx</title>
<path fill="none" stroke="#c6c5fe" d="M861.33,-234.48C861.33,-234.48 640.67,-234.48 640.67,-234.48 636.83,-234.48 633,-230.64 633,-226.81 633,-226.81 633,-219.14 633,-219.14 633,-215.31 636.83,-211.48 640.67,-211.48 640.67,-211.48 861.33,-211.48 861.33,-211.48 865.17,-211.48 869,-215.31 869,-219.14 869,-219.14 869,-226.81 869,-226.81 869,-230.64 865.17,-234.48 861.33,-234.48"/>
<text text-anchor="middle" x="751" y="-219.28" font-family="Arial" font-size="14.00" fill="#c6c5fe">Components/ShoppingCart/index.jsx</text>
</g>
<!-- Components/Navbar/index.jsx&#45;&gt;Components/ShoppingCart/index.jsx -->
<g id="edge6" class="edge">
<title>Components/Navbar/index.jsx&#45;&gt;Components/ShoppingCart/index.jsx</title>
<path fill="none" stroke="#757575" d="M525.92,-222.98C556.39,-222.98 590.44,-222.98 622.62,-222.98"/>
<polygon fill="#757575" stroke="#757575" points="622.99,-226.48 632.99,-222.98 622.99,-219.48 622.99,-226.48"/>
</g>
<!-- Components/ShoppingCart/index.jsx&#45;&gt;Context/index.jsx -->
<g id="edge10" class="edge">
<title>Components/ShoppingCart/index.jsx&#45;&gt;Context/index.jsx</title>
<path fill="none" stroke="#757575" d="M857.19,-234.5C868.39,-236.83 879.51,-239.62 890,-242.98 937.96,-258.31 989.04,-287.35 1019.07,-305.9"/>
<polygon fill="#757575" stroke="#757575" points="1017.35,-308.96 1027.69,-311.3 1021.07,-303.03 1017.35,-308.96"/>
</g>
<!-- Components/OrdersCard/index.jsx -->
<g id="node10" class="node">
<title>Components/OrdersCard/index.jsx</title>
<path fill="none" stroke="#cfffac" d="M855.83,-275.48C855.83,-275.48 646.17,-275.48 646.17,-275.48 642.33,-275.48 638.5,-271.64 638.5,-267.81 638.5,-267.81 638.5,-260.14 638.5,-260.14 638.5,-256.31 642.33,-252.48 646.17,-252.48 646.17,-252.48 855.83,-252.48 855.83,-252.48 859.67,-252.48 863.5,-256.31 863.5,-260.14 863.5,-260.14 863.5,-267.81 863.5,-267.81 863.5,-271.64 859.67,-275.48 855.83,-275.48"/>
<text text-anchor="middle" x="751" y="-260.28" font-family="Arial" font-size="14.00" fill="#cfffac">Components/OrdersCard/index.jsx</text>
</g>
<!-- Components/ProductDetail/index.jsx -->
<g id="node11" class="node">
<title>Components/ProductDetail/index.jsx</title>
<path fill="none" stroke="#c6c5fe" d="M860.83,-75.48C860.83,-75.48 641.17,-75.48 641.17,-75.48 637.33,-75.48 633.5,-71.64 633.5,-67.81 633.5,-67.81 633.5,-60.14 633.5,-60.14 633.5,-56.31 637.33,-52.48 641.17,-52.48 641.17,-52.48 860.83,-52.48 860.83,-52.48 864.67,-52.48 868.5,-56.31 868.5,-60.14 868.5,-60.14 868.5,-67.81 868.5,-67.81 868.5,-71.64 864.67,-75.48 860.83,-75.48"/>
<text text-anchor="middle" x="751" y="-60.28" font-family="Arial" font-size="14.00" fill="#c6c5fe">Components/ProductDetail/index.jsx</text>
</g>
<!-- Components/ProductDetail/index.jsx&#45;&gt;Context/index.jsx -->
<g id="edge9" class="edge">
<title>Components/ProductDetail/index.jsx&#45;&gt;Context/index.jsx</title>
<path fill="none" stroke="#757575" d="M868.74,-73.4C876.2,-76.25 883.37,-79.74 890,-83.98 973.55,-137.41 1021.57,-253.59 1038.49,-301.58"/>
<polygon fill="#757575" stroke="#757575" points="1035.25,-302.91 1041.8,-311.24 1041.87,-300.64 1035.25,-302.91"/>
</g>
<!-- Components/ProductDetail/styles.css -->
<g id="node12" class="node">
<title>Components/ProductDetail/styles.css</title>
<path fill="none" stroke="#cfffac" d="M1159.33,-75.48C1159.33,-75.48 933.67,-75.48 933.67,-75.48 929.83,-75.48 926,-71.64 926,-67.81 926,-67.81 926,-60.14 926,-60.14 926,-56.31 929.83,-52.48 933.67,-52.48 933.67,-52.48 1159.33,-52.48 1159.33,-52.48 1163.17,-52.48 1167,-56.31 1167,-60.14 1167,-60.14 1167,-67.81 1167,-67.81 1167,-71.64 1163.17,-75.48 1159.33,-75.48"/>
<text text-anchor="middle" x="1046.5" y="-60.28" font-family="Arial" font-size="14.00" fill="#cfffac">Components/ProductDetail/styles.css</text>
</g>
<!-- Components/ProductDetail/index.jsx&#45;&gt;Components/ProductDetail/styles.css -->
<g id="edge8" class="edge">
<title>Components/ProductDetail/index.jsx&#45;&gt;Components/ProductDetail/styles.css</title>
<path fill="none" stroke="#757575" d="M868.84,-63.98C884.18,-63.98 899.98,-63.98 915.53,-63.98"/>
<polygon fill="#757575" stroke="#757575" points="915.7,-67.48 925.7,-63.98 915.7,-60.48 915.7,-67.48"/>
</g>
<!-- Pages/Admin/ShippingLavelTemplate/index.jsx -->
<g id="node13" class="node">
<title>Pages/Admin/ShippingLavelTemplate/index.jsx</title>
<path fill="none" stroke="#c6c5fe" d="M568.33,-515.48C568.33,-515.48 285.67,-515.48 285.67,-515.48 281.83,-515.48 278,-511.64 278,-507.81 278,-507.81 278,-500.14 278,-500.14 278,-496.31 281.83,-492.48 285.67,-492.48 285.67,-492.48 568.33,-492.48 568.33,-492.48 572.17,-492.48 576,-496.31 576,-500.14 576,-500.14 576,-507.81 576,-507.81 576,-511.64 572.17,-515.48 568.33,-515.48"/>
<text text-anchor="middle" x="427" y="-500.28" font-family="Arial" font-size="14.00" fill="#c6c5fe">Pages/Admin/ShippingLavelTemplate/index.jsx</text>
</g>
<!-- Pages/Admin/ShippingLavelTemplate/index.jsx&#45;&gt;Context/index.jsx -->
<g id="edge13" class="edge">
<title>Pages/Admin/ShippingLavelTemplate/index.jsx&#45;&gt;Context/index.jsx</title>
<path fill="none" stroke="#757575" d="M505.49,-515.48C619.08,-530.91 824.4,-552.87 890,-520.98 967.15,-483.47 1017.4,-387.09 1036.65,-344.16"/>
<polygon fill="#757575" stroke="#757575" points="1039.89,-345.49 1040.68,-334.92 1033.48,-342.69 1039.89,-345.49"/>
</g>
<!-- Pages/Admin/ShippingLavelTemplate/index.jsx&#45;&gt;Components/OrderCard/index.jsx -->
<g id="edge12" class="edge">
<title>Pages/Admin/ShippingLavelTemplate/index.jsx&#45;&gt;Components/OrderCard/index.jsx</title>
<path fill="none" stroke="#757575" d="M576.28,-502.13C594.85,-501.9 613.65,-501.67 631.69,-501.44"/>
<polygon fill="#757575" stroke="#757575" points="631.96,-504.94 641.91,-501.32 631.87,-497.94 631.96,-504.94"/>
</g>
<!-- Pages/Admin/ShippingLavelTemplate/index.jsx&#45;&gt;Components/Layout/index.jsx -->
<g id="edge11" class="edge">
<title>Pages/Admin/ShippingLavelTemplate/index.jsx&#45;&gt;Components/Layout/index.jsx</title>
<path fill="none" stroke="#757575" d="M545.74,-492.42C556.1,-490.1 566.32,-487.32 576,-483.98 634.09,-463.93 694.31,-423.43 726.44,-399.94"/>
<polygon fill="#757575" stroke="#757575" points="728.78,-402.57 734.73,-393.8 724.61,-396.94 728.78,-402.57"/>
</g>
<!-- Pages/Admin/index.jsx -->
<g id="node14" class="node">
<title>Pages/Admin/index.jsx</title>
<path fill="none" stroke="#c6c5fe" d="M496.33,-433.48C496.33,-433.48 357.67,-433.48 357.67,-433.48 353.83,-433.48 350,-429.64 350,-425.81 350,-425.81 350,-418.14 350,-418.14 350,-414.31 353.83,-410.48 357.67,-410.48 357.67,-410.48 496.33,-410.48 496.33,-410.48 500.17,-410.48 504,-414.31 504,-418.14 504,-418.14 504,-425.81 504,-425.81 504,-429.64 500.17,-433.48 496.33,-433.48"/>
<text text-anchor="middle" x="427" y="-418.28" font-family="Arial" font-size="14.00" fill="#c6c5fe">Pages/Admin/index.jsx</text>
</g>
<!-- Pages/Admin/index.jsx&#45;&gt;Context/index.jsx -->
<g id="edge15" class="edge">
<title>Pages/Admin/index.jsx&#45;&gt;Context/index.jsx</title>
<path fill="none" stroke="#757575" d="M504.28,-428.43C597.1,-434.07 757.79,-436.67 890,-401.98 939.1,-389.09 990.59,-359.2 1020.27,-340.1"/>
<polygon fill="#757575" stroke="#757575" points="1022.3,-342.96 1028.76,-334.55 1018.47,-337.1 1022.3,-342.96"/>
</g>
<!-- Pages/Admin/index.jsx&#45;&gt;Components/Layout/index.jsx -->
<g id="edge14" class="edge">
<title>Pages/Admin/index.jsx&#45;&gt;Components/Layout/index.jsx</title>
<path fill="none" stroke="#757575" d="M504.31,-412.5C547.02,-407.19 600.84,-400.5 647.22,-394.74"/>
<polygon fill="#757575" stroke="#757575" points="647.81,-398.2 657.3,-393.49 646.95,-391.25 647.81,-398.2"/>
</g>
<!-- Pages/App/App.css -->
<g id="node15" class="node">
<title>Pages/App/App.css</title>
<path fill="none" stroke="#cfffac" d="M486.33,-75.48C486.33,-75.48 367.67,-75.48 367.67,-75.48 363.83,-75.48 360,-71.64 360,-67.81 360,-67.81 360,-60.14 360,-60.14 360,-56.31 363.83,-52.48 367.67,-52.48 367.67,-52.48 486.33,-52.48 486.33,-52.48 490.17,-52.48 494,-56.31 494,-60.14 494,-60.14 494,-67.81 494,-67.81 494,-71.64 490.17,-75.48 486.33,-75.48"/>
<text text-anchor="middle" x="427" y="-60.28" font-family="Arial" font-size="14.00" fill="#cfffac">Pages/App/App.css</text>
</g>
<!-- Pages/App/index.jsx -->
<g id="node16" class="node">
<title>Pages/App/index.jsx</title>
<path fill="none" stroke="#c6c5fe" d="M234.33,-392.48C234.33,-392.48 110.67,-392.48 110.67,-392.48 106.83,-392.48 103,-388.64 103,-384.81 103,-384.81 103,-377.14 103,-377.14 103,-373.31 106.83,-369.48 110.67,-369.48 110.67,-369.48 234.33,-369.48 234.33,-369.48 238.17,-369.48 242,-373.31 242,-377.14 242,-377.14 242,-384.81 242,-384.81 242,-388.64 238.17,-392.48 234.33,-392.48"/>
<text text-anchor="middle" x="172.5" y="-377.28" font-family="Arial" font-size="14.00" fill="#c6c5fe">Pages/App/index.jsx</text>
</g>
<!-- Pages/App/index.jsx&#45;&gt;Context/index.jsx -->
<g id="edge18" class="edge">
<title>Pages/App/index.jsx&#45;&gt;Context/index.jsx</title>
<path fill="none" stroke="#757575" d="M175.76,-392.71C183.21,-428 210.51,-533.79 278,-582.98 388.37,-663.41 774.06,-711.14 890,-638.98 917.84,-621.65 1008.19,-411.53 1036.76,-343.84"/>
<polygon fill="#757575" stroke="#757575" points="1040,-345.16 1040.65,-334.59 1033.55,-342.45 1040,-345.16"/>
</g>
<!-- Pages/App/index.jsx&#45;&gt;Components/CheckoutSideMenu/index.jsx -->
<g id="edge16" class="edge">
<title>Pages/App/index.jsx&#45;&gt;Components/CheckoutSideMenu/index.jsx</title>
<path fill="none" stroke="#757575" d="M173.78,-392.71C175.53,-437.12 188.08,-596.24 278,-671.98 282.36,-675.65 287.06,-678.89 292.01,-681.74"/>
<polygon fill="#757575" stroke="#757575" points="290.66,-684.98 301.16,-686.45 293.87,-678.76 290.66,-684.98"/>
</g>
<!-- Pages/App/index.jsx&#45;&gt;Components/Navbar/index.jsx -->
<g id="edge17" class="edge">
<title>Pages/App/index.jsx&#45;&gt;Components/Navbar/index.jsx</title>
<path fill="none" stroke="#757575" d="M227.53,-369.45C232.78,-366.89 237.73,-363.78 242,-359.98 271.73,-333.51 249.05,-305.29 278,-277.98 298.77,-258.37 327.16,-245.61 353.51,-237.38"/>
<polygon fill="#757575" stroke="#757575" points="354.51,-240.73 363.11,-234.54 352.53,-234.02 354.51,-240.73"/>
</g>
<!-- Pages/App/index.jsx&#45;&gt;Pages/Admin/ShippingLavelTemplate/index.jsx -->
<g id="edge19" class="edge">
<title>Pages/App/index.jsx&#45;&gt;Pages/Admin/ShippingLavelTemplate/index.jsx</title>
<path fill="none" stroke="#757575" d="M181.35,-392.68C196.88,-414.77 233.86,-462.31 278,-483.98 281.63,-485.76 285.36,-487.39 289.18,-488.9"/>
<polygon fill="#757575" stroke="#757575" points="288.22,-492.27 298.81,-492.38 290.59,-485.69 288.22,-492.27"/>
</g>
<!-- Pages/App/index.jsx&#45;&gt;Pages/Admin/index.jsx -->
<g id="edge20" class="edge">
<title>Pages/App/index.jsx&#45;&gt;Pages/Admin/index.jsx</title>
<path fill="none" stroke="#757575" d="M230.9,-392.48C246.18,-395.4 262.69,-398.43 278,-400.98 297.93,-404.29 319.42,-407.54 339.69,-410.44"/>
<polygon fill="#757575" stroke="#757575" points="339.45,-413.94 349.84,-411.88 340.43,-407.01 339.45,-413.94"/>
</g>
<!-- Pages/App/index.jsx&#45;&gt;Pages/App/App.css -->
<g id="edge21" class="edge">
<title>Pages/App/index.jsx&#45;&gt;Pages/App/App.css</title>
<path fill="none" stroke="#757575" d="M230.65,-369.47C234.91,-366.9 238.79,-363.78 242,-359.98 321.84,-265.48 190.73,-171.65 278,-83.98 296.57,-65.32 323.69,-58.31 349.65,-56.65"/>
<polygon fill="#757575" stroke="#757575" points="350.05,-60.14 359.91,-56.26 349.78,-53.15 350.05,-60.14"/>
</g>
<!-- Pages/Forms/index.jsx -->
<g id="node17" class="node">
<title>Pages/Forms/index.jsx</title>
<path fill="none" stroke="#c6c5fe" d="M496.33,-157.48C496.33,-157.48 357.67,-157.48 357.67,-157.48 353.83,-157.48 350,-153.64 350,-149.81 350,-149.81 350,-142.14 350,-142.14 350,-138.31 353.83,-134.48 357.67,-134.48 357.67,-134.48 496.33,-134.48 496.33,-134.48 500.17,-134.48 504,-138.31 504,-142.14 504,-142.14 504,-149.81 504,-149.81 504,-153.64 500.17,-157.48 496.33,-157.48"/>
<text text-anchor="middle" x="427" y="-142.28" font-family="Arial" font-size="14.00" fill="#c6c5fe">Pages/Forms/index.jsx</text>
</g>
<!-- Pages/App/index.jsx&#45;&gt;Pages/Forms/index.jsx -->
<g id="edge22" class="edge">
<title>Pages/App/index.jsx&#45;&gt;Pages/Forms/index.jsx</title>
<path fill="none" stroke="#757575" d="M229.95,-369.32C234.41,-366.79 238.53,-363.71 242,-359.98 291.02,-307.21 230.7,-256.29 278,-201.98 295.68,-181.68 321.51,-168.71 346.65,-160.44"/>
<polygon fill="#757575" stroke="#757575" points="347.71,-163.78 356.24,-157.5 345.65,-157.09 347.71,-163.78"/>
</g>
<!-- Pages/Home/index.jsx -->
<g id="node18" class="node">
<title>Pages/Home/index.jsx</title>
<path fill="none" stroke="#c6c5fe" d="M495.33,-116.48C495.33,-116.48 358.67,-116.48 358.67,-116.48 354.83,-116.48 351,-112.64 351,-108.81 351,-108.81 351,-101.14 351,-101.14 351,-97.31 354.83,-93.48 358.67,-93.48 358.67,-93.48 495.33,-93.48 495.33,-93.48 499.17,-93.48 503,-97.31 503,-101.14 503,-101.14 503,-108.81 503,-108.81 503,-112.64 499.17,-116.48 495.33,-116.48"/>
<text text-anchor="middle" x="427" y="-101.28" font-family="Arial" font-size="14.00" fill="#c6c5fe">Pages/Home/index.jsx</text>
</g>
<!-- Pages/App/index.jsx&#45;&gt;Pages/Home/index.jsx -->
<g id="edge23" class="edge">
<title>Pages/App/index.jsx&#45;&gt;Pages/Home/index.jsx</title>
<path fill="none" stroke="#757575" d="M230.56,-369.39C234.84,-366.84 238.75,-363.74 242,-359.98 311.09,-280.03 202.63,-199.03 278,-124.98 294.51,-108.75 317.51,-101.41 340.46,-98.73"/>
<polygon fill="#757575" stroke="#757575" points="340.97,-102.2 350.63,-97.83 340.36,-95.23 340.97,-102.2"/>
</g>
<!-- Pages/MyAccount/index.jsx -->
<g id="node19" class="node">
<title>Pages/MyAccount/index.jsx</title>
<path fill="none" stroke="#c6c5fe" d="M510.33,-351.48C510.33,-351.48 343.67,-351.48 343.67,-351.48 339.83,-351.48 336,-347.64 336,-343.81 336,-343.81 336,-336.14 336,-336.14 336,-332.31 339.83,-328.48 343.67,-328.48 343.67,-328.48 510.33,-328.48 510.33,-328.48 514.17,-328.48 518,-332.31 518,-336.14 518,-336.14 518,-343.81 518,-343.81 518,-347.64 514.17,-351.48 510.33,-351.48"/>
<text text-anchor="middle" x="427" y="-336.28" font-family="Arial" font-size="14.00" fill="#c6c5fe">Pages/MyAccount/index.jsx</text>
</g>
<!-- Pages/App/index.jsx&#45;&gt;Pages/MyAccount/index.jsx -->
<g id="edge24" class="edge">
<title>Pages/App/index.jsx&#45;&gt;Pages/MyAccount/index.jsx</title>
<path fill="none" stroke="#757575" d="M227.35,-369.47C243.59,-366.18 261.48,-362.75 278,-359.98 293.46,-357.38 309.87,-354.9 325.92,-352.61"/>
<polygon fill="#757575" stroke="#757575" points="326.44,-356.08 335.86,-351.22 325.47,-349.14 326.44,-356.08"/>
</g>
<!-- Pages/MyOrder/index.jsx -->
<g id="node20" class="node">
<title>Pages/MyOrder/index.jsx</title>
<path fill="none" stroke="#c6c5fe" d="M503.83,-474.48C503.83,-474.48 350.17,-474.48 350.17,-474.48 346.33,-474.48 342.5,-470.64 342.5,-466.81 342.5,-466.81 342.5,-459.14 342.5,-459.14 342.5,-455.31 346.33,-451.48 350.17,-451.48 350.17,-451.48 503.83,-451.48 503.83,-451.48 507.67,-451.48 511.5,-455.31 511.5,-459.14 511.5,-459.14 511.5,-466.81 511.5,-466.81 511.5,-470.64 507.67,-474.48 503.83,-474.48"/>
<text text-anchor="middle" x="427" y="-459.28" font-family="Arial" font-size="14.00" fill="#c6c5fe">Pages/MyOrder/index.jsx</text>
</g>
<!-- Pages/App/index.jsx&#45;&gt;Pages/MyOrder/index.jsx -->
<g id="edge25" class="edge">
<title>Pages/App/index.jsx&#45;&gt;Pages/MyOrder/index.jsx</title>
<path fill="none" stroke="#757575" d="M188.85,-392.53C208.43,-406.65 243.87,-430.11 278,-441.98 295.17,-447.94 314.02,-452.22 332.34,-455.28"/>
<polygon fill="#757575" stroke="#757575" points="332.04,-458.77 342.46,-456.86 333.12,-451.86 332.04,-458.77"/>
</g>
<!-- Pages/MyOrders/index.jsx -->
<g id="node21" class="node">
<title>Pages/MyOrders/index.jsx</title>
<path fill="none" stroke="#c6c5fe" d="M507.33,-310.48C507.33,-310.48 346.67,-310.48 346.67,-310.48 342.83,-310.48 339,-306.64 339,-302.81 339,-302.81 339,-295.14 339,-295.14 339,-291.31 342.83,-287.48 346.67,-287.48 346.67,-287.48 507.33,-287.48 507.33,-287.48 511.17,-287.48 515,-291.31 515,-295.14 515,-295.14 515,-302.81 515,-302.81 515,-306.64 511.17,-310.48 507.33,-310.48"/>
<text text-anchor="middle" x="427" y="-295.28" font-family="Arial" font-size="14.00" fill="#c6c5fe">Pages/MyOrders/index.jsx</text>
</g>
<!-- Pages/App/index.jsx&#45;&gt;Pages/MyOrders/index.jsx -->
<g id="edge26" class="edge">
<title>Pages/App/index.jsx&#45;&gt;Pages/MyOrders/index.jsx</title>
<path fill="none" stroke="#757575" d="M222.89,-369.47C229.58,-366.89 236.15,-363.76 242,-359.98 262.37,-346.81 256.63,-330.44 278,-318.98 293.38,-310.73 310.89,-305.44 328.37,-302.11"/>
<polygon fill="#757575" stroke="#757575" points="329.36,-305.5 338.63,-300.38 328.19,-298.59 329.36,-305.5"/>
</g>
<!-- Pages/NotFound/index.jsx -->
<g id="node22" class="node">
<title>Pages/NotFound/index.jsx</title>
<path fill="none" stroke="#c6c5fe" d="M506.33,-392.48C506.33,-392.48 347.67,-392.48 347.67,-392.48 343.83,-392.48 340,-388.64 340,-384.81 340,-384.81 340,-377.14 340,-377.14 340,-373.31 343.83,-369.48 347.67,-369.48 347.67,-369.48 506.33,-369.48 506.33,-369.48 510.17,-369.48 514,-373.31 514,-377.14 514,-377.14 514,-384.81 514,-384.81 514,-388.64 510.17,-392.48 506.33,-392.48"/>
<text text-anchor="middle" x="427" y="-377.28" font-family="Arial" font-size="14.00" fill="#c6c5fe">Pages/NotFound/index.jsx</text>
</g>
<!-- Pages/App/index.jsx&#45;&gt;Pages/NotFound/index.jsx -->
<g id="edge27" class="edge">
<title>Pages/App/index.jsx&#45;&gt;Pages/NotFound/index.jsx</title>
<path fill="none" stroke="#757575" d="M242.16,-380.98C269.07,-380.98 300.43,-380.98 329.54,-380.98"/>
<polygon fill="#757575" stroke="#757575" points="329.73,-384.48 339.73,-380.98 329.73,-377.48 329.73,-384.48"/>
</g>
<!-- Pages/SignIn/index.jsx -->
<g id="node23" class="node">
<title>Pages/SignIn/index.jsx</title>
<path fill="none" stroke="#c6c5fe" d="M495.83,-573.48C495.83,-573.48 358.17,-573.48 358.17,-573.48 354.33,-573.48 350.5,-569.64 350.5,-565.81 350.5,-565.81 350.5,-558.14 350.5,-558.14 350.5,-554.31 354.33,-550.48 358.17,-550.48 358.17,-550.48 495.83,-550.48 495.83,-550.48 499.67,-550.48 503.5,-554.31 503.5,-558.14 503.5,-558.14 503.5,-565.81 503.5,-565.81 503.5,-569.64 499.67,-573.48 495.83,-573.48"/>
<text text-anchor="middle" x="427" y="-558.28" font-family="Arial" font-size="14.00" fill="#c6c5fe">Pages/SignIn/index.jsx</text>
</g>
<!-- Pages/App/index.jsx&#45;&gt;Pages/SignIn/index.jsx -->
<g id="edge28" class="edge">
<title>Pages/App/index.jsx&#45;&gt;Pages/SignIn/index.jsx</title>
<path fill="none" stroke="#757575" d="M178.59,-392.83C191.12,-420.59 226.29,-490.05 278,-524.98 296.46,-537.44 318.77,-545.71 340.4,-551.2"/>
<polygon fill="#757575" stroke="#757575" points="339.74,-554.64 350.28,-553.53 341.35,-547.82 339.74,-554.64"/>
</g>
<!-- Pages/Forms/index.jsx&#45;&gt;Components/Card/index.jsx -->
<g id="edge29" class="edge">
<title>Pages/Forms/index.jsx&#45;&gt;Components/Card/index.jsx</title>
<path fill="none" stroke="#757575" d="M504.31,-136.26C547.71,-130.73 602.59,-123.74 649.47,-117.78"/>
<polygon fill="#757575" stroke="#757575" points="650.18,-121.21 659.65,-116.48 649.29,-114.27 650.18,-121.21"/>
</g>
<!-- Pages/Forms/index.jsx&#45;&gt;Context/index.jsx -->
<g id="edge32" class="edge">
<title>Pages/Forms/index.jsx&#45;&gt;Context/index.jsx</title>
<path fill="none" stroke="#757575" d="M504.11,-134.83C598.86,-124.38 763.6,-117.6 890,-172.98 954.38,-201.18 1007.82,-268.46 1031.85,-302.5"/>
<polygon fill="#757575" stroke="#757575" points="1029.27,-304.92 1037.83,-311.16 1035.03,-300.94 1029.27,-304.92"/>
</g>
<!-- Pages/Forms/index.jsx&#45;&gt;Components/Layout/index.jsx -->
<g id="edge30" class="edge">
<title>Pages/Forms/index.jsx&#45;&gt;Components/Layout/index.jsx</title>
<path fill="none" stroke="#757575" d="M489.05,-157.48C518.36,-165.67 552.19,-179.37 576,-201.98 604.87,-229.38 586.86,-253.11 612,-283.98 641.26,-319.9 686.83,-348.75 717.52,-365.61"/>
<polygon fill="#757575" stroke="#757575" points="716.07,-368.8 726.53,-370.45 719.38,-362.64 716.07,-368.8"/>
</g>
<!-- Pages/Forms/index.jsx&#45;&gt;Components/ProductDetail/index.jsx -->
<g id="edge31" class="edge">
<title>Pages/Forms/index.jsx&#45;&gt;Components/ProductDetail/index.jsx</title>
<path fill="none" stroke="#757575" d="M504.25,-145.42C528.34,-142.61 554.31,-136.7 576,-124.98 597.33,-113.44 590.69,-95.54 612,-83.98 615.77,-81.93 619.68,-80.07 623.69,-78.38"/>
<polygon fill="#757575" stroke="#757575" points="625.12,-81.58 633.22,-74.75 622.63,-75.04 625.12,-81.58"/>
</g>
<!-- Pages/Home/index.jsx&#45;&gt;Components/Card/index.jsx -->
<g id="edge33" class="edge">
<title>Pages/Home/index.jsx&#45;&gt;Components/Card/index.jsx</title>
<path fill="none" stroke="#757575" d="M503.09,-104.98C546.54,-104.98 601.81,-104.98 649.03,-104.98"/>
<polygon fill="#757575" stroke="#757575" points="649.29,-108.48 659.29,-104.98 649.29,-101.48 649.29,-108.48"/>
</g>
<!-- Pages/Home/index.jsx&#45;&gt;Context/index.jsx -->
<g id="edge36" class="edge">
<title>Pages/Home/index.jsx&#45;&gt;Context/index.jsx</title>
<path fill="none" stroke="#757575" d="M503.11,-104.55C527.52,-101.8 553.97,-95.88 576,-83.98 597.33,-72.44 589.91,-52.98 612,-42.98 724.56,7.98 783.52,19.69 890,-42.98 915.36,-57.9 1005.13,-239.64 1035.43,-302.08"/>
<polygon fill="#757575" stroke="#757575" points="1032.41,-303.87 1039.91,-311.34 1038.71,-300.82 1032.41,-303.87"/>
</g>
<!-- Pages/Home/index.jsx&#45;&gt;Components/Layout/index.jsx -->
<g id="edge34" class="edge">
<title>Pages/Home/index.jsx&#45;&gt;Components/Layout/index.jsx</title>
<path fill="none" stroke="#757575" d="M503.06,-98.59C529.03,-100.32 556.49,-107.12 576,-124.98 629.45,-173.9 571.81,-223.69 612,-283.98 637.29,-321.92 682.63,-349.87 714.42,-366"/>
<polygon fill="#757575" stroke="#757575" points="712.89,-369.15 723.4,-370.43 715.98,-362.87 712.89,-369.15"/>
</g>
<!-- Pages/Home/index.jsx&#45;&gt;Components/ProductDetail/index.jsx -->
<g id="edge35" class="edge">
<title>Pages/Home/index.jsx&#45;&gt;Components/ProductDetail/index.jsx</title>
<path fill="none" stroke="#757575" d="M503.09,-95.41C546.72,-89.86 602.26,-82.79 649.61,-76.76"/>
<polygon fill="#757575" stroke="#757575" points="650.11,-80.22 659.59,-75.49 649.22,-73.28 650.11,-80.22"/>
</g>
<!-- Pages/MyAccount/index.jsx&#45;&gt;Context/index.jsx -->
<g id="edge38" class="edge">
<title>Pages/MyAccount/index.jsx&#45;&gt;Context/index.jsx</title>
<path fill="none" stroke="#757575" d="M518.12,-337.49C642.61,-334.07 864.49,-327.96 976.6,-324.87"/>
<polygon fill="#757575" stroke="#757575" points="976.88,-328.37 986.78,-324.59 976.68,-321.37 976.88,-328.37"/>
</g>
<!-- Pages/MyAccount/index.jsx&#45;&gt;Components/Layout/index.jsx -->
<g id="edge37" class="edge">
<title>Pages/MyAccount/index.jsx&#45;&gt;Components/Layout/index.jsx</title>
<path fill="none" stroke="#757575" d="M516.41,-351.51C558.39,-356.98 608.68,-363.54 651.84,-369.17"/>
<polygon fill="#757575" stroke="#757575" points="651.41,-372.65 661.78,-370.47 652.32,-365.7 651.41,-372.65"/>
</g>
<!-- Pages/MyOrder/index.jsx&#45;&gt;Context/index.jsx -->
<g id="edge41" class="edge">
<title>Pages/MyOrder/index.jsx&#45;&gt;Context/index.jsx</title>
<path fill="none" stroke="#757575" d="M511.61,-470.26C606.27,-475.56 763.71,-475.38 890,-430.98 945.03,-411.63 998.5,-367.2 1026.12,-341.76"/>
<polygon fill="#757575" stroke="#757575" points="1028.62,-344.22 1033.52,-334.83 1023.83,-339.11 1028.62,-344.22"/>
</g>
<!-- Pages/MyOrder/index.jsx&#45;&gt;Components/OrderCard/index.jsx -->
<g id="edge40" class="edge">
<title>Pages/MyOrder/index.jsx&#45;&gt;Components/OrderCard/index.jsx</title>
<path fill="none" stroke="#757575" d="M511.76,-472.6C550.84,-477.09 597.86,-482.49 639.78,-487.31"/>
<polygon fill="#757575" stroke="#757575" points="639.42,-490.79 649.75,-488.46 640.22,-483.84 639.42,-490.79"/>
</g>
<!-- Pages/MyOrder/index.jsx&#45;&gt;Components/Layout/index.jsx -->
<g id="edge39" class="edge">
<title>Pages/MyOrder/index.jsx&#45;&gt;Components/Layout/index.jsx</title>
<path fill="none" stroke="#757575" d="M511.5,-453.97C532.69,-450.91 555.31,-446.96 576,-441.98 624.13,-430.38 677.73,-410.84 712.56,-397.22"/>
<polygon fill="#757575" stroke="#757575" points="713.85,-400.48 721.86,-393.55 711.28,-393.97 713.85,-400.48"/>
</g>
<!-- Pages/MyOrders/index.jsx&#45;&gt;Context/index.jsx -->
<g id="edge44" class="edge">
<title>Pages/MyOrders/index.jsx&#45;&gt;Context/index.jsx</title>
<path fill="none" stroke="#757575" d="M515.16,-302.36C639.12,-307.18 863.79,-315.91 976.75,-320.3"/>
<polygon fill="#757575" stroke="#757575" points="976.87,-323.81 987,-320.7 977.14,-316.82 976.87,-323.81"/>
</g>
<!-- Pages/MyOrders/index.jsx&#45;&gt;Components/Layout/index.jsx -->
<g id="edge42" class="edge">
<title>Pages/MyOrders/index.jsx&#45;&gt;Components/Layout/index.jsx</title>
<path fill="none" stroke="#757575" d="M515.06,-307.6C535.22,-310.46 556.49,-314.18 576,-318.98 625.19,-331.06 679.8,-352.16 714.48,-366.58"/>
<polygon fill="#757575" stroke="#757575" points="713.14,-369.81 723.72,-370.46 715.85,-363.36 713.14,-369.81"/>
</g>
<!-- Pages/MyOrders/index.jsx&#45;&gt;Components/OrdersCard/index.jsx -->
<g id="edge43" class="edge">
<title>Pages/MyOrders/index.jsx&#45;&gt;Components/OrdersCard/index.jsx</title>
<path fill="none" stroke="#757575" d="M515.14,-289.5C551.64,-285.54 594.61,-280.87 633.75,-276.61"/>
<polygon fill="#757575" stroke="#757575" points="634.58,-280.04 644.14,-275.48 633.82,-273.08 634.58,-280.04"/>
</g>
<!-- Pages/NotFound/index.jsx&#45;&gt;Components/Layout/index.jsx -->
<g id="edge45" class="edge">
<title>Pages/NotFound/index.jsx&#45;&gt;Components/Layout/index.jsx</title>
<path fill="none" stroke="#757575" d="M514.29,-381.24C554.05,-381.37 601.61,-381.51 643.57,-381.64"/>
<polygon fill="#757575" stroke="#757575" points="643.81,-385.15 653.82,-381.68 643.83,-378.15 643.81,-385.15"/>
</g>
<!-- Pages/SignIn/index.jsx&#45;&gt;Context/index.jsx -->
<g id="edge47" class="edge">
<title>Pages/SignIn/index.jsx&#45;&gt;Context/index.jsx</title>
<path fill="none" stroke="#757575" d="M478.28,-573.51C567.43,-591.16 756.38,-615.68 890,-542.98 971.76,-498.49 1020.37,-390.23 1037.97,-344.22"/>
<polygon fill="#757575" stroke="#757575" points="1041.31,-345.26 1041.51,-334.66 1034.75,-342.82 1041.31,-345.26"/>
</g>
<!-- Pages/SignIn/index.jsx&#45;&gt;Components/Layout/index.jsx -->
<g id="edge46" class="edge">
<title>Pages/SignIn/index.jsx&#45;&gt;Components/Layout/index.jsx</title>
<path fill="none" stroke="#757575" d="M503.71,-552.86C528.17,-547.43 554.49,-538.78 576,-524.98 597.56,-511.14 593.38,-497.56 612,-479.98 646.31,-447.57 691.89,-417.25 721.09,-399.16"/>
<polygon fill="#757575" stroke="#757575" points="723.26,-401.93 729.96,-393.72 719.61,-395.96 723.26,-401.93"/>
</g>
<!-- services/apiService.js -->
<g id="node24" class="node">
<title>services/apiService.js</title>
<path fill="none" stroke="#c6c5fe" d="M816.33,-629.48C816.33,-629.48 685.67,-629.48 685.67,-629.48 681.83,-629.48 678,-625.64 678,-621.81 678,-621.81 678,-614.14 678,-614.14 678,-610.31 681.83,-606.48 685.67,-606.48 685.67,-606.48 816.33,-606.48 816.33,-606.48 820.17,-606.48 824,-610.31 824,-614.14 824,-614.14 824,-621.81 824,-621.81 824,-625.64 820.17,-629.48 816.33,-629.48"/>
<text text-anchor="middle" x="751" y="-614.28" font-family="Arial" font-size="14.00" fill="#c6c5fe">services/apiService.js</text>
</g>
<!-- Pages/SignIn/index.jsx&#45;&gt;services/apiService.js -->
<g id="edge48" class="edge">
<title>Pages/SignIn/index.jsx&#45;&gt;services/apiService.js</title>
<path fill="none" stroke="#757575" d="M494.33,-573.51C546.5,-582.58 619.23,-595.23 673.79,-604.72"/>
<polygon fill="#757575" stroke="#757575" points="673.31,-608.19 683.76,-606.45 674.51,-601.29 673.31,-608.19"/>
</g>
<!-- config/config.js -->
<g id="node25" class="node">
<title>config/config.js</title>
<path fill="none" stroke="#cfffac" d="M1091.83,-629.48C1091.83,-629.48 1001.17,-629.48 1001.17,-629.48 997.33,-629.48 993.5,-625.64 993.5,-621.81 993.5,-621.81 993.5,-614.14 993.5,-614.14 993.5,-610.31 997.33,-606.48 1001.17,-606.48 1001.17,-606.48 1091.83,-606.48 1091.83,-606.48 1095.67,-606.48 1099.5,-610.31 1099.5,-614.14 1099.5,-614.14 1099.5,-621.81 1099.5,-621.81 1099.5,-625.64 1095.67,-629.48 1091.83,-629.48"/>
<text text-anchor="middle" x="1046.5" y="-614.28" font-family="Arial" font-size="14.00" fill="#cfffac">config/config.js</text>
</g>
<!-- services/apiService.js&#45;&gt;config/config.js -->
<g id="edge51" class="edge">
<title>services/apiService.js&#45;&gt;config/config.js</title>
<path fill="none" stroke="#757575" d="M824.17,-617.98C872.93,-617.98 936.65,-617.98 983.19,-617.98"/>
<polygon fill="#757575" stroke="#757575" points="983.45,-621.48 993.45,-617.98 983.45,-614.48 983.45,-621.48"/>
</g>
<!-- index.css -->
<g id="node26" class="node">
<title>index.css</title>
<path fill="none" stroke="#cfffac" d="M201.33,-351.48C201.33,-351.48 143.67,-351.48 143.67,-351.48 139.83,-351.48 136,-347.64 136,-343.81 136,-343.81 136,-336.14 136,-336.14 136,-332.31 139.83,-328.48 143.67,-328.48 143.67,-328.48 201.33,-328.48 201.33,-328.48 205.17,-328.48 209,-332.31 209,-336.14 209,-336.14 209,-343.81 209,-343.81 209,-347.64 205.17,-351.48 201.33,-351.48"/>
<text text-anchor="middle" x="172.5" y="-336.28" font-family="Arial" font-size="14.00" fill="#cfffac">index.css</text>
</g>
<!-- main.jsx -->
<g id="node27" class="node">
<title>main.jsx</title>
<path fill="none" stroke="#c6c5fe" d="M59.33,-371.48C59.33,-371.48 7.67,-371.48 7.67,-371.48 3.83,-371.48 0,-367.64 0,-363.81 0,-363.81 0,-356.14 0,-356.14 0,-352.31 3.83,-348.48 7.67,-348.48 7.67,-348.48 59.33,-348.48 59.33,-348.48 63.17,-348.48 67,-352.31 67,-356.14 67,-356.14 67,-363.81 67,-363.81 67,-367.64 63.17,-371.48 59.33,-371.48"/>
<text text-anchor="middle" x="33.5" y="-356.28" font-family="Arial" font-size="14.00" fill="#c6c5fe">main.jsx</text>
</g>
<!-- main.jsx&#45;&gt;Pages/App/index.jsx -->
<g id="edge49" class="edge">
<title>main.jsx&#45;&gt;Pages/App/index.jsx</title>
<path fill="none" stroke="#757575" d="M67.31,-365.01C75.14,-366.2 83.82,-367.54 92.74,-368.9"/>
<polygon fill="#757575" stroke="#757575" points="92.47,-372.4 102.88,-370.46 93.53,-365.48 92.47,-372.4"/>
</g>
<!-- main.jsx&#45;&gt;index.css -->
<g id="edge50" class="edge">
<title>main.jsx&#45;&gt;index.css</title>
<path fill="none" stroke="#757575" d="M67.31,-355.18C84.76,-352.64 106.49,-349.47 125.59,-346.68"/>
<polygon fill="#757575" stroke="#757575" points="126.2,-350.13 135.59,-345.22 125.19,-343.2 126.2,-350.13"/>
</g>
</g>
</svg>
